<?xml version="1.0" encoding="iso-8859-1"?>
<!-- Generator: Adobe Illustrator 19.0.0, SVG Export Plug-In . SVG Version: 6.00 Build 0)  -->
<svg version="1.1" id="Layer_1" xmlns="http://www.w3.org/2000/svg" xmlns:xlink="http://www.w3.org/1999/xlink" x="0px" y="0px"
	 viewBox="0 0 512.219 512.219" style="enable-background:new 0 0 512.219 512.219;" xml:space="preserve">
<g>
	<g>
		<path style="fill:#FFCD00;" d="M504,248.109c0.25,0-10.766-16-24-16h-72c-0.204,0-0.37,0.101-0.569,0.116
			c-2.229,0-4.659,0-7.431,0l8.219-40.116v-16c0-4.418-3.582-8-8-8h-376c-13.255,0-24,10.745-24,24v96c0,13.255,10.745,24,24,24H320
			c0,4.418,3.582,8,8,8h111.781l0.02-8h32.417l23.781-16v15.956c0.077,0.002,0.141,0.044,0.219,0.044c4.422,0,8-3.582,8-8
			L504,248.109z"/>
	</g>
	<g>
		<path style="fill:#FF9100;" d="M144.219,272.109c-22.091,0-40,17.909-40,40h80C184.219,290.018,166.31,272.109,144.219,272.109z"
			/>
	</g>
	<g>
		<path style="fill:#5D647F;" d="M112,200.109v24c0,4.418,3.582,8,8,8h24c4.418,0,8-3.582,8-8v-24c0-4.418-3.582-8-8-8h-24
			C115.582,192.109,112,195.691,112,200.109z"/>
	</g>
	<g>
		<path style="fill:#5D647F;" d="M160,200.109v24c0,4.418,3.582,8,8,8h24c4.418,0,8-3.582,8-8v-24c0-4.418-3.582-8-8-8h-24
			C163.582,192.109,160,195.691,160,200.109z"/>
	</g>
	<g>
		<path style="fill:#5D647F;" d="M64,200.109v24c0,4.418,3.582,8,8,8h24c4.418,0,8-3.582,8-8v-24c0-4.418-3.582-8-8-8H72
			C67.582,192.109,64,195.691,64,200.109z"/>
	</g>
	<g>
		<path style="fill:#5D647F;" d="M16,200.109v24c0,4.418,3.582,8,8,8h24c4.418,0,8-3.582,8-8v-24c0-4.418-3.582-8-8-8H24
			C19.582,192.109,16,195.691,16,200.109z"/>
	</g>
	<g>
		<path style="fill:#5D647F;" d="M208,200.109v24c0,4.418,3.582,8,8,8h24c4.418,0,8-3.582,8-8v-24c0-4.418-3.582-8-8-8h-24
			C211.582,192.109,208,195.691,208,200.109z"/>
	</g>
	<g>
		<path style="fill:#5D647F;" d="M408.219,192.109H408h-96c-4.418,0-8,3.582-8,8v24c0,4.418,3.582,8,8,8h104.219
			C416.219,231.691,408.219,192.109,408.219,192.109z"/>
	</g>
	<g>
		<path style="fill:#5D647F;" d="M256,200.109v24c0,4.418,3.582,8,8,8h24c4.418,0,8-3.582,8-8v-24c0-4.418-3.582-8-8-8h-24
			C259.582,192.109,256,195.691,256,200.109z"/>
	</g>
	<g>
		<path style="fill:#FF9100;" d="M504.034,260.844H496c-4.422,0-8,3.582-8,8s3.578,8,8,8h8.103L504.034,260.844z"/>
	</g>
	<g>
		<path style="fill:#FF9100;" d="M480.478,232.109H416l0,0c0,8.837,7.163,16,16,16h72
			C501.794,237.137,492.092,232.109,480.478,232.109z"/>
	</g>
	<g>
		<path style="fill:#FF9100;" d="M0.219,248.109h346.449c5.219,0,9.441-3.582,9.441-8s-4.223-8-9.441-8H0.219V248.109z"/>
	</g>
	<g>
		<rect x="336" y="192.109" style="fill:#5C546A;" width="64" height="128"/>
	</g>
	<g>
		<path style="fill:#5C546A;" d="M24,304.109c-8.837,0-16-7.163-16-16H0l0,0c0,13.255,10.745,24,24,24l0,0h296l0,0
			c0-4.588-3.851-8.236-8.432-7.988L24,304.109z"/>
	</g>
	<g>
		<circle style="fill:#5C546A;" cx="144.219" cy="312.109" r="32"/>
	</g>
	<g>
		<circle style="fill:#868491;" cx="144.219" cy="312.109" r="16"/>
	</g>
	<g>
		<path style="fill:#FF9100;" d="M486.671,302.386C482.309,285.02,466.718,272.11,448,272.11c-22.091,0-40,17.909-40,40
			c0,2.74,0.281,5.415,0.806,8h30.975l0.02-8h32.417L486.671,302.386z"/>
	</g>
	<g>
		<path style="fill:#868491;" d="M504.219,288.109H464c-4.422,0-8,3.582-8,8s3.578,8,8,8h16.219c-4.422,0-8,3.582-8,8s3.578,0,8,0
			h16c8.82,0,16-7.176,16-16l0,0C512.219,291.691,508.64,288.109,504.219,288.109z"/>
	</g>
	<g>
		<circle style="fill:#5C546A;" cx="448" cy="312.109" r="32"/>
	</g>
	<g>
		<circle style="fill:#868491;" cx="448" cy="312.109" r="16"/>
	</g>
	<g>
		<path style="fill:#5D647F;" d="M377,312.109h14c0.552,0,1-0.448,1-1v-110c0-0.552-0.448-1-1-1h-14c-0.552,0-1,0.448-1,1v110
			C376,311.662,376.448,312.109,377,312.109z"/>
	</g>
	<g>
		<path style="fill:#5D647F;" d="M345,312.109h22c0.552,0,1-0.448,1-1v-110c0-0.552-0.448-1-1-1h-22c-0.552,0-1,0.448-1,1v110
			C344,311.662,344.448,312.109,345,312.109z"/>
	</g>
</g>
<g>
</g>
<g>
</g>
<g>
</g>
<g>
</g>
<g>
</g>
<g>
</g>
<g>
</g>
<g>
</g>
<g>
</g>
<g>
</g>
<g>
</g>
<g>
</g>
<g>
</g>
<g>
</g>
<g>
</g>
</svg>
