<svg height="512pt" viewBox="0 -9 512 511" width="512pt" xmlns="http://www.w3.org/2000/svg"><path d="m451.875 207.539062h41.816406c10.09375 0 18.308594-8.210937 18.308594-18.308593v-81.171875c0-10.097656-8.214844-18.308594-18.308594-18.308594h-41.816406c-4.351562 0-7.875 3.523438-7.875 7.875v102.039062c0 4.351563 3.527344 7.875 7.875 7.875zm0 0" fill="#32458f"/><path d="m18.308594 207.539062h41.816406c4.351562 0 7.875-3.523437 7.875-7.875v-102.039062c0-4.351562-3.523438-7.875-7.875-7.875h-41.816406c-10.09375 0-18.308594 8.214844-18.308594 18.308594v81.171875c0 10.097656 8.214844 18.308593 18.308594 18.308593zm0 0" fill="#5b6aa5"/><path d="m384.902344 492.953125h33.539062c10.074219 0 18.265625-8.191406 18.265625-18.265625v-50.386719c0-4.351562-3.523437-7.875-7.875-7.875h-54.316406c-4.351563 0-7.875 3.523438-7.875 7.875v50.386719c0 10.074219 8.191406 18.265625 18.261719 18.265625zm0 0" fill="#32458f"/><path d="m93.558594 492.953125h33.539062c10.070313 0 18.265625-8.191406 18.265625-18.265625v-50.386719c0-4.351562-3.527343-7.875-7.875-7.875h-54.320312c-4.351563 0-7.875 3.523438-7.875 7.875v50.386719c0 10.074219 8.191406 18.265625 18.265625 18.265625zm0 0" fill="#5b6aa5"/><path d="m81.046875 432.175781h349.90625c15.878906 0 28.796875-12.917969 28.796875-28.800781v-337.25c0-36.1875-29.4375-65.625-65.625-65.625h-276.25c-36.1875 0-65.625 29.4375-65.625 65.625v337.25c0 15.882812 12.917969 28.800781 28.796875 28.800781zm0 0" fill="#ededee"/><path d="m256 66.125h-203.75v165.039062h407.5v-165.039062zm0 0" fill="#ffd833"/><path d="m256 66.125h203.75v165.042969h-203.75zm0 0" fill="#ffce00"/><path d="m118.820312 109.699219h274.359376c8.6875 0 15.75 7.066406 15.75 15.75v105.71875c0 4.347656-3.523438 7.875-7.875 7.875h-290.109376c-4.351562 0-7.875-3.527344-7.875-7.875v-105.71875c0-8.683594 7.0625-15.75 15.75-15.75zm0 0" fill="#36c8e3"/><path d="m256 109.699219h137.179688c8.6875 0 15.75 7.066406 15.75 15.75v105.71875c0 4.347656-3.523438 7.875-7.875 7.875h-145.054688zm0 0" fill="#2fa1c7"/><path d="m459.75 231.164062v172.210938c0 15.882812-12.917969 28.800781-28.796875 28.800781h-349.90625c-15.878906 0-28.796875-12.917969-28.796875-28.800781v-172.210938zm0 0" fill="#fca72b"/><path d="m430.953125 432.175781h-174.953125v-201.011719h203.75v172.210938c0 4.46875-1.019531 8.699219-2.84375 12.476562-4.65625 9.648438-14.539062 16.324219-25.953125 16.324219zm0 0" fill="#fe9d00"/><g fill="#ededee"><path d="m285.847656 318.875h-59.695312c-8.699219 0-15.75-7.054688-15.75-15.753906 0-8.695313 7.050781-15.75 15.75-15.75h59.695312c8.699219 0 15.75 7.054687 15.75 15.75 0 8.699218-7.050781 15.753906-15.75 15.753906zm0 0"/><path d="m226.152344 336.59375h59.695312c8.699219 0 15.75 7.050781 15.75 15.75 0 8.695312-7.050781 15.75-15.75 15.75h-59.695312c-8.699219 0-15.75-7.054688-15.75-15.75 0-8.699219 7.050781-15.75 15.75-15.75zm0 0"/><path d="m87.183594 327.730469c0-29.785157 24.230468-54.019531 54.015625-54.019531 29.789062 0 54.023437 24.234374 54.023437 54.019531 0 29.789062-24.234375 54.019531-54.023437 54.019531-29.785157 0-54.015625-24.230469-54.015625-54.019531zm31.5 0c0 12.417969 10.101562 22.519531 22.515625 22.519531 12.417969 0 22.519531-10.101562 22.519531-22.519531 0-12.414063-10.101562-22.519531-22.519531-22.519531-12.414063 0-22.515625 10.105468-22.515625 22.519531zm0 0"/></g><path d="m316.777344 327.730469c0-29.785157 24.234375-54.019531 54.019531-54.019531s54.019531 24.234374 54.019531 54.019531c0 29.789062-24.234375 54.019531-54.019531 54.019531s-54.019531-24.230469-54.019531-54.019531zm31.5 0c0 12.417969 10.101562 22.519531 22.519531 22.519531s22.519531-10.101562 22.519531-22.519531c0-12.414063-10.101562-22.519531-22.519531-22.519531-12.414063 0-22.519531 10.105468-22.519531 22.519531zm0 0" fill="#d1d1d4"/><path d="m459.75 66.125c0-36.1875-29.4375-65.625-65.625-65.625h-276.25c-36.1875 0-65.625 29.4375-65.625 65.625zm0 0" fill="#ededee"/><path d="m256 .5h138.125c36.1875 0 65.625 29.4375 65.625 65.625h-203.75zm0 0" fill="#d1d1d4"/><path d="m285.847656 287.371094c8.699219 0 15.75 7.054687 15.75 15.75 0 8.699218-7.050781 15.753906-15.75 15.753906h-29.847656v-31.503906zm0 0" fill="#d1d1d4"/><path d="m285.847656 336.59375c8.699219 0 15.75 7.050781 15.75 15.75 0 8.695312-7.050781 15.75-15.75 15.75h-29.847656v-31.5zm0 0" fill="#d1d1d4"/></svg>